<svg viewBox="-91 0 511 512" xmlns="http://www.w3.org/2000/svg"><path d="m253.207031 149.753906c-37.234375-69.207031-88.046875-149.753906-88.046875-149.753906s-50.808594 80.546875-88.042968 149.753906c-50.839844 94.492188-76.617188 161.035156-76.617188 197.777344 0 90.6875 73.867188 164.46875 164.660156 164.46875 90.796875 0 164.664063-73.78125 164.664063-164.46875 0-36.742188-25.777344-103.28125-76.617188-197.777344zm0 0" fill="#ff193d"/><path d="m253.207031 149.753906c-37.234375-69.207031-88.046875-149.753906-88.046875-149.753906v512c90.796875 0 164.664063-73.78125 164.664063-164.46875 0-36.742188-25.777344-103.28125-76.617188-197.777344zm0 0" fill="#dc0812"/><path d="m131.496094 253.738281c-24.8125 0-45.003906 20.191407-45.003906 45.003907v106.5h30v-59.09375h30.003906v59.09375h30v-106.5c0-24.8125-20.1875-45.003907-45-45.003907zm-15 62.414063v-17.410156c0-8.269532 6.730468-15 15-15 8.273437 0 15 6.726562 15 15v17.410156zm0 0" fill="#fdc417"/><path d="m194.867188 269.15625h64.835937v30h-64.835937zm0 0" fill="#fdc417"/><g fill="#ff9100"><path d="m194.867188 269.15625h64.835937v30h-64.835937zm0 0"/><path d="m176.496094 298.742188c0-11.429688-4.289063-21.871094-11.335938-29.816407v136.316407h11.335938zm0 0"/></g></svg>