<svg height="512pt" viewBox="0 0 512 512.0005" width="512pt" xmlns="http://www.w3.org/2000/svg"><path d="m87.871094 471.140625-47.011719-47.011719c-5.859375-5.859375-5.859375-15.359375 0-21.21875l181.054687-181.054687c5.859376-5.859375 15.359376-5.859375 21.21875 0l47.011719 47.011719c5.859375 5.859374 5.859375 15.359374 0 21.21875l-181.054687 181.054687c-5.859375 5.859375-15.359375 5.859375-21.21875 0zm0 0" fill="#2b7a77"/><path d="m290.144531 268.867188-23.507812-23.503907-202.269531 202.269531 23.503906 23.507813c5.859375 5.859375 15.359375 5.859375 21.21875 0l181.054687-181.054687c5.859375-5.859376 5.859375-15.359376 0-21.21875zm0 0" fill="#024e41"/><path d="m47.558594 498.914062-34.472656-34.472656c-17.449219-17.449218-17.449219-45.839844 0-63.289062l3.714843-3.714844c17.449219-17.449219 45.839844-17.449219 63.289063 0l34.472656 34.472656c17.449219 17.449219 17.449219 45.839844 0 63.289063l-3.714844 3.714843c-17.449218 17.449219-45.839844 17.449219-63.289062 0zm0 0" fill="#024e41"/><path d="m114.5625 431.910156-17.234375-17.238281-67.007813 67.007813 17.238282 17.234374c17.449218 17.449219 45.839844 17.449219 63.289062 0l3.714844-3.714843c17.449219-17.449219 17.449219-45.839844 0-63.289063zm0 0" fill="#17242a"/><path d="m224.257812 287.742188c-65.738281-65.738282-65.738281-172.699219 0-238.4375 65.738282-65.738282 172.699219-65.738282 238.4375 0 65.738282 65.738281 65.738282 172.699218 0 238.4375-65.738281 65.738281-172.699218 65.738281-238.4375 0zm0 0" fill="#d9f2ff"/><path d="m462.695312 49.304688-238.4375 238.4375c65.738282 65.738281 172.699219 65.738281 238.4375 0 65.738282-65.738282 65.738282-172.699219 0-238.4375zm0 0" fill="#a2d8f4"/><path d="m224.257812 287.742188c-65.738281-65.738282-65.738281-172.699219 0-238.4375 65.738282-65.738282 172.699219-65.738282 238.4375 0 65.738282 65.738281 65.738282 172.699218 0 238.4375-65.738281 65.738281-172.699218 65.738281-238.4375 0zm217.222657-217.222657c-54.039063-54.039062-141.96875-54.039062-196.007813 0-54.039062 54.039063-54.039062 141.96875 0 196.007813 54.039063 54.035156 141.96875 54.035156 196.007813 0 54.039062-54.039063 54.039062-141.96875 0-196.007813zm0 0" fill="#0abab5"/><path d="m462.695312 49.304688-21.214843 21.214843c54.039062 54.039063 54.039062 141.96875 0 196.007813-54.039063 54.035156-141.96875 54.035156-196.007813 0l-21.214844 21.214844c65.738282 65.738281 172.699219 65.738281 238.4375 0 65.738282-65.738282 65.738282-172.699219 0-238.4375zm0 0" fill="#2b7a77"/><path d="m266.691406 112.953125c-5.859375-5.859375-5.859375-15.355469 0-21.214844 20.511719-20.511719 47.78125-31.804687 76.785156-31.804687 29.007813 0 56.277344 11.292968 76.785157 31.804687 5.859375 5.859375 5.859375 15.355469 0 21.214844s-15.359375 5.859375-21.214844 0c-14.84375-14.839844-34.578125-23.015625-55.570313-23.015625-20.988281 0-40.722656 8.175781-55.566406 23.015625-5.859375 5.859375-15.359375 5.859375-21.21875 0zm0 0" fill="#00abe9"/><path d="m420.261719 91.738281-21.214844 21.214844c5.855469 5.859375 15.355469 5.859375 21.214844 0s5.859375-15.355469 0-21.214844zm0 0" fill="#008adf"/><path d="m383.824219 420.933594c-21.132813 0-40.539063-6.6875-54.640625-18.835938-15.21875-13.109375-23.601563-32.082031-23.601563-53.417968 0-18.421876 11.480469-43.808594 35.09375-77.617188 16.613281-23.78125 32.972657-42.59375 33.660157-43.382812 2.390624-2.738282 5.851562-4.3125 9.488281-4.3125s7.097656 1.574218 9.488281 4.3125c.6875.789062 17.046875 19.601562 33.65625 43.382812 23.617188 33.808594 35.09375 59.195312 35.09375 77.617188 0 21.335937-8.378906 40.308593-23.601562 53.417968-14.097657 12.148438-33.503907 18.835938-54.636719 18.835938zm0 0" fill="#f89a76"/><path d="m426.96875 271.0625c-16.609375-23.78125-32.96875-42.59375-33.65625-43.382812-2.390625-2.738282-5.851562-4.3125-9.488281-4.3125v197.566406c21.132812 0 40.539062-6.6875 54.636719-18.835938 15.222656-13.109375 23.601562-32.082031 23.601562-53.417968 0-18.421876-11.476562-43.808594-35.09375-77.617188zm0 0" fill="#ef5f3c"/></svg>