<svg id="_x33_0" enable-background="new 0 0 64 64" height="512" viewBox="0 0 64 64" width="512" xmlns="http://www.w3.org/2000/svg"><g><g><g><path d="m50 3v17h-6v-6-4-2c0-1.1-.9-2-2-2h-4v-3c0-.55.45-1 1-1h10c.55 0 1 .45 1 1z" fill="#ccd1d9"/></g><g><path d="m44 14v6h-4c-1.1 0-2 .9-2 2v2h-2c-2.21 0-4-1.79-4-4v-12c0-1.1.9-2 2-2h4 4c1.1 0 2 .9 2 2v2z" fill="#e6e9ed"/></g><g><path d="m14.57 9.17-2.68 1.08c-1.14.45-1.89 1.55-1.89 2.78v.97h-1c-.8 0-1.52.31-2.05.81l-.71-2.85c-.16-.64-.24-1.29-.24-1.95 0-4.42 3.59-8.01 8.01-8.01h5.98c2.21 0 4.21.9 5.66 2.35s2.35 3.45 2.35 5.66c0 .66-.08 1.31-.24 1.95l-.71 2.85c-.53-.5-1.25-.81-2.05-.81h-1v-.19c0-1.03-.78-1.89-1.8-1.99l-4.22-.42c-1.48-.15-2.72-1.01-3.41-2.23z" fill="#fcd770"/></g><g><path d="m25.63 28.42-4.63-.42-4 5-4-5-4.63.42c-3.61.33-6.37 3.35-6.37 6.97v3.61h6v2h9 2 7v-2h6v-3.61c0-3.62-2.76-6.64-6.37-6.97z" fill="#b4dd7f"/></g><g><path d="m30 62h-26c-1.105 0-2-.895-2-2v-11c0-1.105.895-2 2-2h26c1.105 0 2 .895 2 2v11c0 1.105-.895 2-2 2z" fill="#b27946"/></g><g><path d="m17 41h2c-.83 0-1.58.34-2.12.88s-.88 1.29-.88 2.12c0 1.66 1.34 3 3 3h-13c-2.21 0-4-1.79-4-4v-4h6v2z" fill="#f0d0b4"/></g><g><path d="m19 41h7v-2h6v4c0 2.21-1.79 4-4 4h-6-3c-1.66 0-3-1.34-3-3 0-.83.34-1.58.88-2.12s1.29-.88 2.12-.88z" fill="#f0d0b4"/></g><g><path d="m27.05 14.81c.59.55.95 1.33.95 2.19 0 .83-.34 1.58-.88 2.12s-1.29.88-2.12.88h-1.29c.19-.63.29-1.3.29-2v-4h1c.8 0 1.52.31 2.05.81z" fill="#f0d0b4"/></g><g><path d="m20.07 24.29.93 3.71-4 5-4-5 .93-3.71c.92.46 1.96.71 3.07.71s2.15-.25 3.07-.71z" fill="#f0d0b4"/></g><g><path d="m24 14v4c0 .7-.1 1.37-.29 2-.56 1.89-1.9 3.44-3.64 4.29-.92.46-1.96.71-3.07.71s-2.15-.25-3.07-.71c-.7-.34-1.33-.79-1.88-1.34-.81-.81-1.43-1.82-1.76-2.95-.19-.63-.29-1.3-.29-2v-4-.97c0-1.23.75-2.33 1.89-2.78l2.68-1.08c.69 1.22 1.93 2.08 3.41 2.23l4.22.42c1.02.1 1.8.96 1.8 1.99z" fill="#f0d0b4"/></g><g><path d="m10.29 20h-1.29c-.83 0-1.58-.34-2.12-.88s-.88-1.29-.88-2.12c0-.86.36-1.64.95-2.19.53-.5 1.25-.81 2.05-.81h1v4c0 .7.1 1.37.29 2z" fill="#f0d0b4"/></g><g><path d="m60 20h-10-6-4c-1.1 0-2 .9-2 2v2 30c0 1.1.9 2 2 2h20c1.1 0 2-.9 2-2v-32c0-1.1-.9-2-2-2z" fill="#969faa"/></g><g><path d="m42 24h16v12h-16z" fill="#69d6f4"/></g><g><path d="m42 48h16v8h-16z" fill="#fcd770"/></g><g><circle cx="54" cy="42" fill="#ef7385" r="2"/></g><g><circle cx="46" cy="42" fill="#ef7385" r="2"/></g></g><g><path d="m20.789 19.658.105-.211-1.789-.895-.105.212c-.381.762-1.147 1.236-2 1.236s-1.619-.474-2-1.236l-.105-.211-1.789.895.105.21c.722 1.445 2.174 2.342 3.789 2.342s3.067-.897 3.789-2.342z"/><path d="m41 37h18v-14h-18zm2-2v-6h1.382l2.447 4.895 3.171-4.228 2.5 3.333h4.5v2zm14-10v6h-3.5l-3.5-4.667-2.829 3.772-1.553-3.105h-2.618v-2z"/><path d="m54 39c-1.654 0-3 1.346-3 3s1.346 3 3 3 3-1.346 3-3-1.346-3-3-3zm0 4c-.552 0-1-.449-1-1s.448-1 1-1 1 .449 1 1-.448 1-1 1z"/><path d="m60 19h-9v-16c0-1.103-.897-2-2-2h-10c-1.103 0-2 .897-2 2v2h-3c-1.654 0-3 1.346-3 3v12c0 2.757 2.243 5 5 5h1v29c0 1.654 1.346 3 3 3h4.899c-.465 2.279-2.484 4-4.899 4-2.757 0-5-2.243-5-5v-2c0-2.206-1.794-4-4-4s-4 1.794-4 4v5c0 1.103-.897 2-2 2s-2-.897-2-2v-11h5c2.757 0 5-2.243 5-5v-7.607c0-4.165-3.128-7.59-7.275-7.967l-3.927-.357-.572-2.288c1.422-.89 2.547-2.209 3.185-3.78h.589c2.206 0 4-1.794 4-4 0-.925-.329-1.767-.858-2.446l.588-2.355c.179-.713.27-1.449.27-2.186 0-4.971-4.044-9.014-9.014-9.014h-5.973c-4.969 0-9.013 4.043-9.013 9.014 0 .737.091 1.473.27 2.186l.589 2.354c-.53.679-.859 1.521-.859 2.446 0 2.206 1.794 4 4 4h.589c.638 1.571 1.763 2.89 3.185 3.78l-.572 2.288-3.927.357c-4.147.377-7.275 3.803-7.275 7.968v7.607c0 1.347.541 2.566 1.41 3.466-.844.531-1.41 1.465-1.41 2.534v11c0 1.654 1.346 3 3 3h36c3.519 0 6.432-2.613 6.92-6h13.08c1.654 0 3-1.346 3-3v-32c0-1.654-1.346-3-3-3zm-32 27h-5v-2h-2v2h-2c-1.103 0-2-.897-2-2s.897-2 2-2h6.586l1.707 1.707 1.414-1.414-1.707-1.707v-.586h4v3c0 1.654-1.346 3-3 3zm-25-6h4v.586l-1.707 1.707 1.414 1.414 1.707-1.707h7.142c-.344.591-.556 1.268-.556 2s.212 1.409.556 2h-9.556c-1.654 0-3-1.346-3-3zm28-4.607v2.607h-4v-4h-2v6h-7v-2h2v-2h-2v-2.649l3.444-4.306 4.099.373c3.111.282 5.457 2.851 5.457 5.975zm-6-16.393h-.069c.041-.328.069-.661.069-1v-3c1.103 0 2 .897 2 2s-.897 2-2 2zm-10.986-16h5.973c3.867 0 7.013 3.146 7.013 7.014 0 .574-.07 1.146-.209 1.701l-.388 1.553c-.438-.166-.908-.268-1.403-.268h-.123c-.325-1.163-1.319-2.049-2.578-2.175l-4.219-.422c-1.756-.176-3.08-1.639-3.08-3.403h-2c0 .565.086 1.111.246 1.625l-1.731.693c-1.518.606-2.5 2.05-2.513 3.682h-.002c-.495 0-.965.102-1.403.267l-.388-1.553c-.139-.554-.209-1.127-.209-1.7 0-3.868 3.146-7.014 7.014-7.014zm-5.014 16c-1.103 0-2-.897-2-2s.897-2 2-2v3c0 .339.028.672.069 1zm2-1v-4.969c0-.823.493-1.552 1.257-1.857l1.935-.774c.882 1.096 2.186 1.842 3.689 1.993l4.219.422c.514.051.9.479.9.995v4.19c0 3.309-2.691 6-6 6s-6-2.691-6-6zm6 8c.828 0 1.628-.127 2.38-.362l.531 2.124-2.911 3.637-2.91-3.637.531-2.124c.751.235 1.551.362 2.379.362zm-8.543 3.417 4.099-.373 3.444 4.307v2.649h-2v2h2v2h-7v-6h-2v4h-4v-2.607c0-3.124 2.346-5.693 5.457-5.976zm-5.457 30.583v-11c0-.551.448-1 1-1h17v11c0 .732.212 1.409.556 2h-17.556c-.552 0-1-.449-1-1zm25.444 1c.344-.591.556-1.268.556-2v-5c0-1.103.897-2 2-2s2 .897 2 2v2c0 1.958.81 3.728 2.111 5zm10.556-58h10v16h-4v-11c0-1.654-1.346-3-3-3h-3zm-3 20c-1.654 0-3-1.346-3-3v-12c0-.551.448-1 1-1h8c.552 0 1 .449 1 1v1h-4v2h4v2h-4v2h4v4h-3c-1.654 0-3 1.346-3 3v1zm15 30h2v2h-2zm-2 2h-2v-2h2zm6-2h2v2h-2zm2-2h-2v-2h2zm-4 0h-2v-2h2zm-4 0h-2v-2h2zm-4 0h-2v-2h2zm-2 2h2v2h-2zm18 1c0 .551-.448 1-1 1h-1v-8h-12v-2.184c1.161-.414 2-1.514 2-2.816 0-1.654-1.346-3-3-3s-3 1.346-3 3c0 1.302.839 2.402 2 2.816v2.184h-4v8h-1c-.552 0-1-.449-1-1v-32c0-.551.448-1 1-1h20c.552 0 1 .449 1 1zm-16-12c0-.551.448-1 1-1s1 .449 1 1-.448 1-1 1-1-.449-1-1z"/></g></g></svg>