<svg height="496pt" viewBox="0 0 496 496" width="496pt" xmlns="http://www.w3.org/2000/svg"><path d="m264 488h-256v-101.761719c0-15.277343 10.800781-28.398437 25.761719-31.359375l76.957031-15.4375 17.28125 60.558594 24-14.398438v54.398438l16 16 16-16v-54.398438l24 14.398438 17.28125-60.558594 76.957031 15.4375c14.960938 2.960938 25.761719 16.082032 25.761719 31.359375v101.761719zm0 0" fill="#ffeaa7"/><path d="m184 385.601562v54.398438l-16 16-16-16v-54.398438l16-9.601562zm0 0" fill="#b4dd7f"/><path d="m184 385.601562-16-9.601562 40-40 17.28125 3.441406-17.28125 60.558594zm0 0" fill="#b4dd7f"/><path d="m152 385.601562-24 14.398438-17.28125-60.558594 17.28125-3.441406 40 40zm0 0" fill="#b4dd7f"/><path d="m272 165.761719v58.238281c0-17.679688-14.320312-32-32-32v-15.039062c0-4.640626-1.921875-8.960938-4.960938-12-3.039062-3.039063-7.359374-4.960938-12-4.960938-4.480468 0-8.800781 1.761719-12 4.960938-7.039062 7.039062-16.640624 11.039062-26.640624 11.039062h-72.398438c-8.800781 0-16 7.199219-16 16-17.679688 0-32 14.320312-32 32v-76c0-12.960938 4.238281-25.601562 12-36s12-23.039062 12-36v-4l10.558594 5.28125c14.082031 7.039062 29.679687 10.71875 45.441406 10.71875 0-10.558594 2.480469-20.878906 7.121094-30.320312l.878906-1.679688 16.238281 12.160156c10.320313 7.761719 22.402344 13.039063 35.203125 15.359375 39.679688 7.199219 68.558594 41.839844 68.558594 82.242188zm0 0" fill="#b27946"/><g fill="#f0d0b4"><path d="m208 312v24l-40 40-40-40v-24l1.921875-2.960938c11.039063 6.960938 24.15625 10.960938 38.078125 10.960938s27.039062-4 38.078125-10.960938zm0 0"/><path d="m272 224c0 17.679688-14.320312 32-32 32l-.480469-.078125c.320313-2.640625.480469-5.28125.480469-7.921875v-56c17.679688 0 32 14.320312 32 32zm0 0"/><path d="m96 192v56c0 2.640625.160156 5.28125.480469 7.921875l-.480469.078125c-17.679688 0-32-14.320312-32-32s14.320312-32 32-32zm0 0"/><path d="m96 248v-56c0-8.800781 7.199219-16 16-16h72.398438c10 0 19.601562-4 26.640624-11.039062 3.199219-3.199219 7.519532-4.960938 12-4.960938 4.640626 0 8.960938 1.921875 12 4.960938 3.039063 3.039062 4.960938 7.359374 4.960938 12v71.039062c0 2.640625-.160156 5.28125-.480469 7.921875-2.398437 22.476563-15.199219 41.839844-33.441406 53.117187-11.039063 6.960938-24.15625 10.960938-38.078125 10.960938s-27.039062-4-38.078125-10.960938c-4.640625-2.878906-8.960937-6.320312-12.800781-10.160156-11.28125-11.199218-18.882813-26.238281-20.640625-42.957031-.320313-2.640625-.480469-5.28125-.480469-7.921875zm0 0"/></g><path d="m440 248v32h-80v-32zm0 0" fill="#fcd770"/><path d="m312 208v-176c0-13.28125 10.71875-24 24-24h128c13.28125 0 24 10.71875 24 24v200c0 8.800781-7.199219 16-16 16h-144c-8.800781 0-16-7.199219-16-16zm0 0" fill="#ff826e"/><path d="m440 112v32h-24v24h-32v-24h-24v-32h24v-24h32v24zm0 0" fill="#e6e9ed"/><path d="m424 80h-48v24h-24v48h24v24h48v-24h24v-48h-24zm8 40v16h-24v24h-16v-24h-24v-16h24v-24h16v24zm0 0"/><path d="m464 0h-128c-17.648438 0-32 14.351562-32 32v200c0 13.230469 10.769531 24 24 24h24v32h40v48h16v-48h40v-32h24c13.230469 0 24-10.769531 24-24v-200c0-17.648438-14.351562-32-32-32zm-32 272h-64v-16h64zm48-40c0 4.414062-3.59375 8-8 8h-144c-4.40625 0-8-3.585938-8-8v-16h16v-16h-16v-16h16v-16h-16v-16h16v-16h-16v-16h16v-16h-16v-16h16v-16h-16v-16h16v-16h-16v-8c0-8.824219 7.175781-16 16-16h128c8.824219 0 16 7.175781 16 16zm0 0"/><path d="m392 352h16v16h-16zm0 0"/><path d="m392 384h16v16h-16zm0 0"/><path d="m392 416h16v16h-16zm0 0"/><path d="m392 448h16v48h-16zm0 0"/><path d="m303.847656 347.007812-87.847656-17.566406v-17.441406h-.207031c15.589843-11.671875 26.824219-28.839844 30.695312-48.65625 18.960938-3.128906 33.511719-19.511719 33.511719-39.34375v-58.28125c0-44.261719-31.617188-82.144531-75.167969-90.054688-11.472656-2.097656-22.472656-6.894531-31.808593-13.894531l-23.886719-17.914062-5.136719 10.257812c-3.992188 7.984375-6.550781 16.703125-7.535156 25.582031-11.921875-.976562-23.664063-4.238281-34.34375-9.582031l-22.121094-11.058593v16.945312c0 11.175781-3.6875 22.257812-10.398438 31.191406-8.769531 11.695313-13.601562 26.191406-13.601562 40.808594v76c0 19.832031 14.550781 36.214844 33.511719 39.34375 3.871093 19.816406 15.105469 36.984375 30.695312 48.65625h-.207031v17.441406l-87.847656 17.566406c-18.632813 3.726563-32.152344 20.222657-32.152344 39.222657v109.769531h336v-109.769531c0-19-13.519531-35.496094-32.152344-39.222657zm-178.472656-2.320312 29.722656 29.726562-22.273437 13.363282-12.046875-42.167969zm34.625 45.441406 8-4.800781 8 4.800781v46.558594l-8 8-8-8zm20.902344-15.714844 29.722656-29.726562 4.597656.921875-12.046875 42.167969zm67.097656-127.886718v-45.046875c9.289062 3.3125 16 12.113281 16 22.527343 0 10.417969-6.710938 19.207032-16 22.519532zm-165.601562-129.71875c7.035156-9.375 11.53125-20.542969 13.042968-32.152344 15.015625 7.421875 31.796875 11.34375 48.558594 11.34375h8v-8c0-6.625 1.128906-13.265625 3.289062-19.535156l8.136719 6.101562c11.316407 8.496094 24.644531 14.3125 38.550781 16.832032 35.933594 6.539062 62.023438 37.785156 62.023438 74.320312v26.488281c-4.671875-3.535156-10.054688-6.183593-16-7.390625v-7.839844c0-13.777343-11.199219-24.976562-24.96875-24.976562-6.671875 0-12.941406 2.59375-17.65625 7.3125-5.597656 5.597656-13.046875 8.6875-20.976562 8.6875h-72.398438c-10.664062 0-19.625 7.039062-22.734375 16.679688-6.425781 1.105468-12.265625 3.746093-17.265625 7.519531v-44.199219c0-11.175781 3.6875-22.257812 10.398438-31.191406zm-10.398438 107.191406c0-10.414062 6.710938-19.214844 16-22.527344v45.046875c-9.289062-3.304687-16-12.105469-16-22.519531zm32 24v-56c0-4.414062 3.59375-8 8-8h72.398438c12.195312 0 23.664062-4.753906 32.289062-13.375 1.695312-1.695312 3.945312-2.625 6.34375-2.625 4.945312 0 8.96875 4.023438 8.96875 8.96875v71.03125c0 35.289062-28.710938 64-64 64s-64-28.710938-64-64zm64 80c11.375 0 22.191406-2.425781 32-6.726562v11.414062l-32 32-32-32v-11.414062c9.808594 4.300781 20.625 6.726562 32 6.726562zm152 152h-48v-88h-16v88h-176v-88h-16v88h-48v-93.769531c0-11.40625 8.113281-21.300781 19.296875-23.535157l69.742187-13.941406 18.136719 63.46875 20.824219-12.496094v43.585938l24 24 24-24v-43.585938l20.832031 12.496094 18.136719-63.46875 69.742188 13.941406c11.175781 2.234376 19.289062 12.136719 19.289062 23.535157zm0 0"/><path d="m216 216c0 4.417969-3.582031 8-8 8s-8-3.582031-8-8 3.582031-8 8-8 8 3.582031 8 8zm0 0"/><path d="m136 216c0 4.417969-3.582031 8-8 8s-8-3.582031-8-8 3.582031-8 8-8 8 3.582031 8 8zm0 0"/><path d="m168 296c17.648438 0 32-14.351562 32-32h-16c0 8.824219-7.175781 16-16 16s-16-7.175781-16-16h-16c0 17.648438 14.351562 32 32 32zm0 0"/></svg>