<svg height="512" viewBox="0 0 60 60" width="512" xmlns="http://www.w3.org/2000/svg"><g id="036---Healthy-Heart-Blood-Flow" fill="none"><g id="Layer_2" transform="translate(1 1)"><path id="Shape" d="m58 15.72c0 8.95-4.69 13.31-8.74 17-1.3688728-.4799288-2.8094371-.7234044-4.26-.72-3.4478144 0-6.7544152 1.3696389-9.1923882 3.8076118-2.4379729 2.437973-3.8076118 5.7445738-3.8076118 9.1923882.0014839.8692847.08519 1.7364803.25 2.59l-.04.04c-1.11.93-2.01 1.67-2.57 2.14-.3665208.3101655-.9034792.3101655-1.27 0-2.78-2.3-13.88-11.54-17.63-15.19-4.3-4.19-10.74-8.39-10.74-18.86s6.44-15.72 15.04-15.72c5.842662.00513957 11.2081484 3.2259688 13.96 8.38 2.7518516-5.1540312 8.117338-8.37486043 13.96-8.38 8.6 0 15.04 5.24 15.04 15.72z" fill="#ef314c"/><path id="Shape" d="m43.489 32.1c-3.6855004-.4499809-7.3864996.7069547-10.1595464 3.1758831-2.7730468 2.4689285-4.3502141 6.0113059-4.3294536 9.7241169.0014839.8692847.08519 1.7364803.25 2.59l-.04.04c-.6553333.5493333-1.2243333 1.023-1.707 1.421l.867.719c.3665208.3101655.9034792.3101655 1.27 0 .56-.47 1.46-1.21 2.57-2.14l.04-.04c-.16481-.8535197-.2485161-1.7207153-.25-2.59.0060277-6.5906317 4.943035-12.1339682 11.489-12.9z" fill="#bb193b"/><path id="Shape" d="m42.96 0c-.48 0-.942.026-1.4.064 7.789.621 13.44 5.836 13.44 15.656 0 8.491-4.221 12.85-8.112 16.425.807411.1144561 1.6018036.307026 2.372.575 4.05-3.69 8.74-8.05 8.74-17 0-10.48-6.44-15.72-15.04-15.72z" fill="#bb193b"/><path id="Shape" d="m14 5c-3.857 0-9 3.3-9 10h6.351s-2.002-10 2.649-10z" fill="#f5f5f5"/><path id="Shape" d="m52 46.97c0 3.8659932-3.1340068 7-7 7s-7-3.1340068-7-7c0-4.63 4.74-9.26 6.42-10.75.332278-.2900364.827722-.2900364 1.16 0 1.68 1.49 6.42 6.12 6.42 10.75z" fill="#f44335"/><path id="Shape" d="m45.58 36.22c-.332278-.2900364-.827722-.2900364-1.16 0-.247.219-.565.513-.92.858 2.057 2 5.5 5.943 5.5 9.892.0041892 3.2950388-2.2832886 6.1498111-5.5 6.864 2.0759305.4608908 4.2487598-.0488282 5.9031661-1.38481 1.6544064-1.3359818 2.6102454-3.3527545 2.5968339-5.47919 0-4.63-4.74-9.26-6.42-10.75z" fill="#c81e1e"/><path id="Shape" d="m49.26 32.72c-1.3688728-.4799288-2.8094371-.7234044-4.26-.72-3.4478144 0-6.7544152 1.3696389-9.1923882 3.8076118-2.4379729 2.437973-3.8076118 5.7445738-3.8076118 9.1923882.0014839.8692847.08519 1.7364803.25 2.59 1.2538248 6.1631942 6.7399481 10.5449012 13.0278349 10.4051901s11.5739769-4.760767 12.5528183-10.973569-2.6303277-12.2353266-8.5706532-14.3016211zm-4.26 21.28c-1.8605769-.0037089-3.643446-.7465162-4.956259-2.0649555-1.3128129-1.3184393-2.047989-3.1044688-2.043741-4.9650445 0-4.63 4.74-9.26 6.42-10.75.332278-.2900364.827722-.2900364 1.16 0 1.68 1.49 6.42 6.12 6.42 10.75.004248 1.8605757-.7309281 3.6466052-2.043741 4.9650445-1.312813 1.3184393-3.0956821 2.0612466-4.956259 2.0649555z" fill="#3f51b5"/><path id="Shape" d="m49.26 32.72c-1.3688728-.4799288-2.8094371-.7234044-4.26-.72-.5050845.0022863-1.0096065.0340067-1.511.095.9442165.1035532 1.8737514.3132101 2.771.625 5.7270315 1.9836857 9.3220566 7.6632055 8.6644071 13.6882695-.6576494 6.0250641-5.3932861 10.7952732-11.4134071 11.4967305 6.5838153.7611206 12.6854069-3.5548096 14.1603686-10.0162658 1.4749618-6.4614562-2.1494309-12.9975446-8.4113686-15.1687342z" fill="#283593"/><circle id="Oval" cx="24" cy="18" fill="#3f51b5" r="3"/><circle id="Oval" cx="34" cy="18" fill="#3f51b5" r="3"/><path id="Shape" d="m35.645 25c.0961766-.000327.1883465.0384927.2553087.1075298s.1029521.1623483.0996913.2584702c-.1989537 3.7207541-3.2739305 6.6357007-7 6.6357007s-6.8010463-2.9149466-7-6.6357007c-.00299-.096391.0333639-.1898505.1007013-.2588856.0673375-.069035.1598631-.1077041.2562987-.1071144z" fill="#bb193b"/></g><g id="Layer_3" fill="#000"><path id="Shape" d="m60 16.72c0-10.313-6.146-16.72-16.04-16.72-5.609166-.00873469-10.8500533 2.7919114-13.96 7.46-3.1099467-4.6680886-8.350834-7.46873469-13.96-7.46-9.894 0-16.04 6.407-16.04 16.72 0 10.707 6.372 15.026 11.043 19.58 4.063 3.955 16.307 14.1 17.685 15.24.3582601.2988508.8104605.4617421 1.277.46.932 0 1.334-.512 2.7-1.646 1.9744995 6.0581513 7.7922132 10.017599 14.1523272 9.6318594 6.3601139-.3857397 11.6566655-5.0192653 12.8845341-11.2716396 1.2278687-6.2523742-1.922989-12.5448391-7.6648613-15.3072198 3.785-3.522 7.923-8.087 7.923-16.687zm-2 29.28c0 6.627417-5.372583 12-12 12s-12-5.372583-12-12 5.372583-12 12-12c6.624447.0071648 11.9928352 5.375553 12 12zm-25.813 2.181-2.179 1.819c-.55-.455-13.493-11.169-17.57-15.136-4.432-4.317-10.438-8.23-10.438-18.144 0-9.22 5.249-14.72 14.04-14.72 5.4638751.01800889 10.4796254 3.02515653 13.07 7.836.1887275.3110611.5261634.5010176.89.5010176s.7012725-.1899565.89-.5010176c2.5903746-4.81084347 7.6061249-7.81799111 13.07-7.836 8.791 0 14.04 5.5 14.04 14.72 0 8.287-4.155 12.369-7.989 15.872-4.6065058-1.3777139-9.5977487-.2929914-13.21693 2.8723708-3.6191812 3.1653623-5.3589957 7.9676715-4.60707 12.7166292z"/><path id="Shape" d="m15 5c-2.4755098.06732842-4.8379836 1.05080167-6.63 2.76-2.2420208 2.14380475-3.46720149 5.1394988-3.37 8.24 0 .5522847.44771525 1 1 1h6.351c.3003227.0000613.5847717-.1348558.7747362-.3674654s.2653283-.5382796.2052638-.8325346c-.522-2.614-1.014-8.8 1.669-8.8.5522847 0 1-.44771525 1-1s-.4477153-1-1-1zm-3.83 10h-4.126c.18433409-2.8986693 1.80806702-5.51241002 4.325-6.962-.5294339 2.284241-.5970918 4.6512469-.199 6.962z"/><path id="Shape" d="m44.756 36.473c-2.031 1.807-6.756 6.545-6.756 11.498 0 4.418278 3.581722 8 8 8s8-3.581722 8-8c0-4.953-4.725-9.691-6.756-11.5-.7098787-.6302649-1.7791355-.6294054-2.488.002zm7.244 11.498c0 3.3137085-2.6862915 6-6 6s-6-2.6862915-6-6c0-4.177 4.48-8.562 6-9.928 1.519 1.365 6 5.751 6 9.928z"/><path id="Shape" d="m45.237 41.353c-1.209 1.426-3.237 4.185-3.237 6.647 0 .5522847.4477153 1 1 1s1-.4477153 1-1c0-1.312 1.033-3.313 2.763-5.353.3573282-.4213933.3053932-1.0526717-.116-1.41-.4213933-.3573282-1.0526718-.3053932-1.41.116z"/><circle id="Oval" cx="45" cy="51" r="1"/><path id="Shape" d="m25 23c2.209139 0 4-1.790861 4-4s-1.790861-4-4-4-4 1.790861-4 4 1.790861 4 4 4zm0-6c1.1045695 0 2 .8954305 2 2s-.8954305 2-2 2-2-.8954305-2-2 .8954305-2 2-2z"/><path id="Shape" d="m35 15c-2.209139 0-4 1.790861-4 4s1.790861 4 4 4 4-1.790861 4-4-1.790861-4-4-4zm0 6c-1.1045695 0-2-.8954305-2-2s.8954305-2 2-2 2 .8954305 2 2-.8954305 2-2 2z"/><path id="Shape" d="m36.645 25h-13.289c-.3704563-.000375-.7249369.1508317-.9810649.4184817-.256128.2676499-.3916004.6284368-.3749351.9985183.2132139 4.2629453 3.731726 7.609875 8 7.609875s7.7867861-3.3469297 8-7.609875c.0166573-.3699079-.1186805-.7305379-.3745897-.9981566s-.6101276-.4189452-.9804103-.4188434zm-2.4 5.242c-1.5915246 1.5820922-3.9312222 2.1470454-6.0693281 1.4655254-2.1381059-.6815199-3.7192812-2.4962489-4.1016719-4.7075254h11.853c-.2077502 1.2291481-.7944275 2.3626451-1.678 3.242z"/></g></g></svg>