<?xml version="1.0" encoding="utf-8"?>
<!-- Generator: Adobe Illustrator 22.1.0, SVG Export Plug-In . SVG Version: 6.00 Build 0)  -->
<svg xmlns="http://www.w3.org/2000/svg" xmlns:xlink="http://www.w3.org/1999/xlink" version="1.1" id="Layer_1" x="0px" y="0px" viewBox="0 0 512 512" style="enable-background:new 0 0 512 512;" xml:space="preserve" width="512" height="512">
<style type="text/css">
	.st0{fill:#DB9C2E;}
	.st1{fill:#BF6C0D;}
	.st2{fill:#F9BB32;}
	.st3{fill:#FCE575;}
	.st4{fill:#FFD551;}
	.st5{fill:#FFC34C;}
	.st6{fill:#FFDF74;}
	.st7{fill:#FFA730;}
	.st8{fill:#FFF4C1;}
	.st9{fill:#FFEACF;}
	.st10{fill:#FF624B;}
	.st11{fill:#CCC033;}
	.st12{fill:#8C4C17;}
	.st13{fill:#FFD59A;}
	.st14{fill:#99AF17;}
	.st15{fill:#FCF9DE;}
	.st16{fill:#E58D23;}
	.st17{fill:#A56021;}
	.st18{fill:#FF4B34;}
	.st19{fill:#FF9079;}
	.st20{fill:#EACF32;}
	.st21{fill:#FFB74B;}
	.st22{fill:#FCDA4F;}
	.st23{fill:#FFEA63;}
</style>
<g>
	<g>
		<path class="st21" d="M375.547,468.617H63.423v-41.596c0-52.467,42.533-95,95-95h122.124c52.467,0,95,42.533,95,95V468.617z"/>
	</g>
	<g>
		<path class="st7" d="M113.423,447.021c0-52.467,42.533-95,95-95h122.124c2.981,0,5.928,0.144,8.839,0.413    c-16.181-12.782-36.618-20.413-58.839-20.413H158.423c-52.467,0-95,42.533-95,95v41.596h50V447.021z"/>
	</g>
	<g>
		<path class="st12" d="M134.76,220.331h34.146v-120.33c0-10.729-8.698-19.427-19.427-19.427H134.76    c-10.729,0-19.427,8.698-19.427,19.427v100.903C115.333,211.634,124.031,220.331,134.76,220.331z"/>
	</g>
	<g>
		<path class="st12" d="M303.672,80.625h-13.643c-11.026,0-19.965,8.939-19.965,19.965v17.384    c21.606,16.072,35.605,41.798,35.605,70.796v31.511c10.088-1.002,17.969-9.512,17.969-19.864V100.59    C323.638,89.564,314.699,80.625,303.672,80.625z"/>
	</g>
	<g>
		<circle class="st9" cx="307.665" cy="196.347" r="28.52"/>
	</g>
	<g>
		<circle class="st13" cx="127.978" cy="196.347" r="28.52"/>
	</g>
	<g>
		<path class="st9" d="M219.485,389.421L219.485,389.421c-23.891,0-43.258-19.367-43.258-43.258V243.009h86.516v103.154    C262.743,370.054,243.376,389.421,219.485,389.421z"/>
	</g>
	<g>
		<path class="st13" d="M206.175,346.163V243.009h-29.948v103.154c0,23.891,19.367,43.258,43.258,43.258l0,0    c5.264,0,10.308-0.943,14.974-2.664C217.949,380.665,206.175,364.79,206.175,346.163z"/>
	</g>
	<g>
		<path class="st9" d="M219.485,297.884L219.485,297.884c-48.701,0-88.18-39.48-88.18-88.18v-44.892c0-48.7,39.48-88.18,88.18-88.18    h0c48.7,0,88.18,39.48,88.18,88.18v44.892C307.665,258.404,268.186,297.884,219.485,297.884z"/>
	</g>
	<g>
		<path class="st13" d="M162.251,198.602v-43.772c0-3.339,0.187-6.634,0.55-9.876c0.562-5.019,4.864-8.785,9.915-8.785h130.189    c-11.891-34.639-44.746-59.537-83.419-59.537c-3.786,0-7.513,0.247-11.173,0.709c0.005-0.003,0.011-0.006,0.017-0.009    c-0.282,0.036-0.559,0.088-0.841,0.126c-0.93,0.126-1.857,0.261-2.776,0.416c-0.446,0.075-0.888,0.161-1.332,0.243    c-0.814,0.15-1.626,0.308-2.432,0.481c-0.468,0.1-0.933,0.206-1.398,0.313c-0.785,0.181-1.566,0.374-2.343,0.577    c-0.455,0.118-0.91,0.236-1.362,0.362c-0.805,0.224-1.603,0.463-2.399,0.709c-0.406,0.125-0.814,0.245-1.217,0.375    c-0.953,0.31-1.897,0.64-2.836,0.981c-0.232,0.084-0.468,0.16-0.698,0.246c-1.167,0.435-2.322,0.895-3.466,1.377    c-0.298,0.126-0.59,0.263-0.887,0.392c-0.837,0.364-1.67,0.735-2.493,1.124c-0.412,0.195-0.818,0.4-1.226,0.601    c-0.7,0.344-1.396,0.694-2.086,1.056c-0.437,0.229-0.87,0.465-1.302,0.701c-0.654,0.358-1.303,0.724-1.947,1.098    c-0.432,0.251-0.863,0.503-1.29,0.76c-0.646,0.39-1.285,0.792-1.92,1.198c-0.402,0.257-0.806,0.51-1.203,0.773    c-0.7,0.464-1.389,0.943-2.075,1.426c-0.315,0.222-0.637,0.436-0.949,0.662c-0.971,0.703-1.927,1.424-2.868,2.164    c-0.292,0.231-0.575,0.472-0.864,0.706c-0.656,0.53-1.31,1.063-1.95,1.611c-0.383,0.328-0.756,0.665-1.132,0.999    c-0.534,0.473-1.066,0.949-1.588,1.435c-0.395,0.368-0.784,0.741-1.172,1.116c-0.49,0.472-0.974,0.95-1.453,1.434    c-0.387,0.391-0.771,0.784-1.151,1.182c-0.468,0.491-0.927,0.989-1.383,1.491c-0.367,0.403-0.736,0.804-1.095,1.214    c-0.469,0.535-0.926,1.081-1.382,1.627c-0.325,0.389-0.657,0.773-0.976,1.167c-0.668,0.829-1.32,1.671-1.959,2.524    c-0.332,0.443-0.651,0.894-0.974,1.343c-0.447,0.62-0.894,1.24-1.325,1.872c-0.316,0.464-0.618,0.936-0.926,1.406    c-0.359,0.549-0.718,1.099-1.065,1.657c-0.311,0.499-0.613,1.005-0.914,1.511c-0.324,0.544-0.644,1.092-0.956,1.644    c-0.294,0.52-0.584,1.042-0.868,1.569c-0.3,0.556-0.592,1.117-0.88,1.681c-0.272,0.531-0.545,1.062-0.806,1.599    c-0.285,0.584-0.555,1.176-0.827,1.768c-0.242,0.526-0.49,1.048-0.721,1.58c-0.312,0.717-0.605,1.445-0.899,2.172    c-0.32,0.792-0.628,1.589-0.925,2.392c-0.244,0.658-0.494,1.312-0.722,1.977h0.007c-3.084,8.982-4.768,18.615-4.768,28.644v43.826    c0,48.513,38.736,88.738,87.246,89.241c15.596,0.161,30.27-3.727,43.037-10.678c-3.85,0.486-7.776,0.725-11.765,0.698    C201.177,287.57,162.251,247.249,162.251,198.602z"/>
	</g>
	<g>
		<path class="st17" d="M274.732,123.191H125.333c-15.983,0-28.94-12.957-28.94-28.94V72.323c0-15.983,12.957-28.94,28.94-28.94    h149.398c15.983,0,28.94,12.957,28.94,28.94v21.927C303.672,110.234,290.715,123.191,274.732,123.191z"/>
	</g>
	<g>
		<path class="st1" d="M287.031,95.005c-3.207,0-5.866-2.535-5.992-5.767c-0.317-8.14-2.88-14.391-7.619-18.581    c-8.717-7.709-22.331-6.665-22.465-6.651c-3.298,0.266-6.202-2.162-6.49-5.456c-0.288-3.293,2.131-6.197,5.423-6.497    c0.76-0.068,18.75-1.565,31.396,9.539c7.343,6.448,11.295,15.593,11.746,27.18c0.129,3.312-2.451,6.1-5.762,6.229    C287.188,95.004,287.109,95.005,287.031,95.005z"/>
	</g>
	<g>
		<g>
			<circle class="st17" cx="169.572" cy="187.258" r="10.981"/>
		</g>
		<g>
			<circle class="st17" cx="269.398" cy="187.258" r="10.981"/>
		</g>
	</g>
	<g>
		<path class="st10" d="M430.262,330.499c-18.127-9.665-44.45-0.645-66.2,20.44c-21.75-21.085-48.073-30.106-66.2-20.44    c-23.879,12.732-24.487,53.045-1.357,90.043c13.794,22.065,32.916,37.961,51.17,44.502c4.974,2.39,10.513,3.456,16.387,3.287    c5.874,0.169,11.414-0.897,16.387-3.287c18.254-6.541,37.375-22.438,51.17-44.502C454.749,383.544,454.142,343.23,430.262,330.499    z"/>
	</g>
	<g>
		<g>
			<path class="st18" d="M379.381,465.044c-18.254-6.541-37.375-22.438-51.17-44.502c-23.13-36.997-22.523-77.311,1.357-90.043     c0.524-0.28,1.056-0.542,1.594-0.79c-12.123-4.206-23.83-4.259-33.3,0.79c-23.879,12.732-24.487,53.045-1.357,90.043     c13.794,22.065,32.916,37.961,51.17,44.502c4.974,2.39,10.513,3.456,16.387,3.287c5.665,0.163,11.018-0.826,15.853-3.041     C379.737,465.208,379.558,465.129,379.381,465.044z"/>
		</g>
	</g>
	<g>
		<path class="st9" d="M428.411,396.573c-0.923,0-1.86-0.213-2.737-0.664c-2.947-1.515-4.109-5.132-2.595-8.079    c14.411-28.046-7.723-40.371-8.672-40.882c-2.918-1.57-4.01-5.209-2.439-8.127c1.57-2.918,5.209-4.012,8.127-2.439    c0.348,0.188,8.592,4.696,14.321,13.986c5.326,8.638,9.535,23.1-0.663,42.946C432.689,395.384,430.588,396.573,428.411,396.573z"/>
	</g>
	<g>
		<circle class="st18" cx="335.099" cy="361.126" r="11.923"/>
	</g>
	<g>
		<circle class="st7" cx="148.069" cy="433.256" r="15.815"/>
	</g>
</g>
</svg>
